<?xml version="1.0" encoding="UTF-8"?>
<svg id="Capa_28" data-name="Capa 28" xmlns="http://www.w3.org/2000/svg" xmlns:xlink="http://www.w3.org/1999/xlink" viewBox="0 0 3101.31 1080">
  <defs>
    <style>
      .cls-1 {
        fill: url(#Nueva_muestra_de_degradado_1-3);
      }

      .cls-2 {
        fill: #fff;
      }

      .cls-3 {
        fill: url(#Nueva_muestra_de_degradado_1-5);
      }

      .cls-4 {
        fill: url(#Nueva_muestra_de_degradado_2-3);
      }

      .cls-5 {
        fill: url(#Nueva_muestra_de_degradado_2-11);
      }

      .cls-6 {
        fill: url(#Nueva_muestra_de_degradado_2-8);
      }

      .cls-7 {
        fill: url(#Nueva_muestra_de_degradado_2-4);
      }

      .cls-8 {
        fill: url(#Nueva_muestra_de_degradado_2-5);
      }

      .cls-9 {
        fill: url(#Nueva_muestra_de_degradado_1-6);
      }

      .cls-10 {
        fill: url(#Degradado_sin_nombre_10);
      }

      .cls-11 {
        fill: url(#Nueva_muestra_de_degradado_1-4);
      }

      .cls-12 {
        fill: url(#Nueva_muestra_de_degradado_1-7);
      }

      .cls-13 {
        fill: url(#Nueva_muestra_de_degradado_2-7);
      }

      .cls-14 {
        fill: url(#Nueva_muestra_de_degradado_1);
      }

      .cls-14, .cls-15 {
        stroke: #fff;
        stroke-miterlimit: 10;
        stroke-width: 18px;
      }

      .cls-16 {
        fill: url(#Nueva_muestra_de_degradado_1-2);
      }

      .cls-17 {
        fill: url(#Nueva_muestra_de_degradado_2-9);
      }

      .cls-18 {
        fill: url(#Nueva_muestra_de_degradado_2);
      }

      .cls-19 {
        fill: url(#Nueva_muestra_de_degradado_2-12);
      }

      .cls-20 {
        fill: url(#Nueva_muestra_de_degradado_2-6);
      }

      .cls-21 {
        fill: url(#Nueva_muestra_de_degradado_2-10);
      }

      .cls-15 {
        fill: none;
      }

      .cls-22 {
        fill: url(#Nueva_muestra_de_degradado_2-2);
      }
    </style>
    <linearGradient id="Nueva_muestra_de_degradado_2" data-name="Nueva muestra de degradado 2" x1="725.73" y1="612.93" x2="1271.75" y2="505.96" gradientUnits="userSpaceOnUse">
      <stop offset="0" stop-color="#5ab5be"/>
      <stop offset="1" stop-color="#2b3078"/>
    </linearGradient>
    <linearGradient id="Nueva_muestra_de_degradado_2-2" data-name="Nueva muestra de degradado 2" x1="121.19" y1="574.06" x2="667.18" y2="467.1" xlink:href="#Nueva_muestra_de_degradado_2"/>
    <linearGradient id="Nueva_muestra_de_degradado_2-3" data-name="Nueva muestra de degradado 2" x1="398.19" y1="370.18" x2="925.91" y2="266.8" xlink:href="#Nueva_muestra_de_degradado_2"/>
    <linearGradient id="Nueva_muestra_de_degradado_2-4" data-name="Nueva muestra de degradado 2" x1="467" y1="813.21" x2="994.73" y2="709.83" xlink:href="#Nueva_muestra_de_degradado_2"/>
    <linearGradient id="Nueva_muestra_de_degradado_2-5" data-name="Nueva muestra de degradado 2" x1="5825.41" y1="2248.49" x2="5825.41" y2="2543.86" gradientTransform="translate(3255.35 -5186.26) rotate(90)" xlink:href="#Nueva_muestra_de_degradado_2"/>
    <linearGradient id="Nueva_muestra_de_degradado_2-6" data-name="Nueva muestra de degradado 2" x1="5461.32" y1="2116.1" x2="5818.06" y2="2116.1" gradientTransform="translate(3255.35 -5186.26) rotate(90)" xlink:href="#Nueva_muestra_de_degradado_2"/>
    <linearGradient id="Nueva_muestra_de_degradado_2-7" data-name="Nueva muestra de degradado 2" x1="2814.49" y1="-5036.63" x2="2814.49" y2="-4741.26" gradientTransform="translate(5422.68 3255.35) rotate(-90)" xlink:href="#Nueva_muestra_de_degradado_2"/>
    <linearGradient id="Nueva_muestra_de_degradado_2-8" data-name="Nueva muestra de degradado 2" x1="2450.4" y1="-5169.02" x2="2807.14" y2="-5169.02" gradientTransform="translate(5422.68 3255.35) rotate(-90)" xlink:href="#Nueva_muestra_de_degradado_2"/>
    <linearGradient id="Nueva_muestra_de_degradado_2-9" data-name="Nueva muestra de degradado 2" x1="39.38" y1="978.56" x2="39.38" y2="1273.94" gradientTransform="translate(702.39 -668.2)" xlink:href="#Nueva_muestra_de_degradado_2"/>
    <linearGradient id="Nueva_muestra_de_degradado_2-10" data-name="Nueva muestra de degradado 2" x1="-324.72" y1="846.17" x2="32.03" y2="846.17" gradientTransform="translate(702.39 -668.2)" xlink:href="#Nueva_muestra_de_degradado_2"/>
    <linearGradient id="Nueva_muestra_de_degradado_2-11" data-name="Nueva muestra de degradado 2" x1="8492.84" y1="-3605.19" x2="8492.84" y2="-3309.81" gradientTransform="translate(9144 -2835.54) rotate(-180)" xlink:href="#Nueva_muestra_de_degradado_2"/>
    <linearGradient id="Nueva_muestra_de_degradado_2-12" data-name="Nueva muestra de degradado 2" x1="8128.75" y1="-3737.57" x2="8485.5" y2="-3737.57" gradientTransform="translate(9144 -2835.54) rotate(-180)" xlink:href="#Nueva_muestra_de_degradado_2"/>
    <linearGradient id="Nueva_muestra_de_degradado_1" data-name="Nueva muestra de degradado 1" x1="1966.23" y1="625.97" x2="2074.69" y2="625.97" gradientUnits="userSpaceOnUse">
      <stop offset="0" stop-color="#e94c4d"/>
      <stop offset="1" stop-color="#a72e2e"/>
    </linearGradient>
    <linearGradient id="Nueva_muestra_de_degradado_1-2" data-name="Nueva muestra de degradado 1" x1="1552.19" y1="-664.6" x2="2935.03" y2="-935.5" gradientTransform="translate(0 1329.63)" xlink:href="#Nueva_muestra_de_degradado_1"/>
    <linearGradient id="Nueva_muestra_de_degradado_1-3" data-name="Nueva muestra de degradado 1" x1="1552.19" y1="665.03" x2="2935.03" y2="394.14" xlink:href="#Nueva_muestra_de_degradado_1"/>
    <linearGradient id="Nueva_muestra_de_degradado_1-4" data-name="Nueva muestra de degradado 1" x1="2100.89" y1="557.39" x2="2450.15" y2="488.97" xlink:href="#Nueva_muestra_de_degradado_1"/>
    <linearGradient id="Nueva_muestra_de_degradado_1-5" data-name="Nueva muestra de degradado 1" x1="1761.49" y1="540" x2="2074.68" y2="540" xlink:href="#Nueva_muestra_de_degradado_1"/>
    <linearGradient id="Nueva_muestra_de_degradado_1-6" data-name="Nueva muestra de degradado 1" x1="2596.79" y1="540.02" x2="2919.33" y2="540.02" xlink:href="#Nueva_muestra_de_degradado_1"/>
    <linearGradient id="Degradado_sin_nombre_10" data-name="Degradado sin nombre 10" x1="2353.24" y1="685.03" x2="2720.4" y2="493.29" gradientUnits="userSpaceOnUse">
      <stop offset="0" stop-color="#e94c4d"/>
      <stop offset=".27" stop-color="#e54a4b"/>
      <stop offset=".51" stop-color="#db4546"/>
      <stop offset=".72" stop-color="#c93d3e"/>
      <stop offset=".93" stop-color="#b13232"/>
      <stop offset="1" stop-color="#a72e2e"/>
    </linearGradient>
    <linearGradient id="Nueva_muestra_de_degradado_1-7" data-name="Nueva muestra de degradado 1" x1="1503.57" y1="536.13" x2="1864.57" y2="536.13" xlink:href="#Nueva_muestra_de_degradado_1"/>
  </defs>
  <g id="Capa_24_copia" data-name="Capa 24 copia">
    <g id="Capa_19_copia_5" data-name="Capa 19 copia 5">
      <g>
        <path class="cls-18" d="m768.71,808.96c-3.07,0-5.56-2.51-5.56-5.59v-24.2c0-82.29,66.95-149.23,149.23-149.23h104.93c4.56,0,9.09-.66,13.48-1.96,20.03-5.96,34.02-24.68,34.02-45.54v-303.17c0-4.52,3.68-8.2,8.2-8.2h36.93c77.55,0,140.65,63.09,140.65,140.65v256.6c0,37.42-14.67,72.69-41.32,99.34-26.64,26.64-61.92,41.31-99.33,41.31h-341.24Z"/>
        <path class="cls-2" d="m1109.95,275.06c75.16,0,136.65,61.49,136.65,136.65v256.6c0,75.16-61.51,136.65-136.65,136.65h-341.24c-.86,0-1.56-.7-1.56-1.59v-24.2c0-80.22,65.01-145.23,145.23-145.23h104.93c5.06,0,9.99-.75,14.62-2.13,21.27-6.33,36.88-26.11,36.88-49.37v-303.17c0-2.32,1.89-4.2,4.2-4.2h36.93m0-8h-36.93c-6.73,0-12.2,5.47-12.2,12.2v303.17c0,19.1-12.81,36.25-31.16,41.7-4.01,1.19-8.17,1.79-12.34,1.79h-104.93c-40.94,0-79.42,15.94-108.36,44.88-28.94,28.94-44.88,67.42-44.88,108.36v24.2c0,5.29,4.29,9.59,9.56,9.59h341.24c19.44,0,38.34-3.84,56.18-11.42,17.21-7.31,32.68-17.76,45.98-31.06,27.4-27.4,42.49-63.68,42.49-102.17v-256.6c0-38.49-15.09-74.77-42.48-102.17-27.39-27.39-63.68-42.48-102.17-42.48h0Z"/>
      </g>
      <g>
        <path class="cls-22" d="m282.99,808.96c-77.55,0-140.65-63.09-140.65-140.65v-256.6c0-77.55,63.09-140.65,140.65-140.65h341.21c3.07,0,5.56,2.49,5.56,5.56v24.23c0,82.29-66.95,149.23-149.23,149.23h-104.91c-4.55,0-9.09.66-13.48,1.96-20.03,5.96-34.02,24.68-34.02,45.54v303.17c0,4.52-3.68,8.2-8.2,8.2h-36.93Z"/>
        <path class="cls-2" d="m624.2,275.06c.86,0,1.56.7,1.56,1.56v24.23c0,80.19-65.01,145.23-145.23,145.23h-104.91c-5.06,0-9.99.75-14.62,2.13-21.27,6.33-36.88,26.11-36.88,49.37v303.17c0,2.32-1.88,4.2-4.2,4.2h-36.93c-75.16,0-136.65-61.49-136.65-136.65v-256.6c0-75.16,61.48-136.65,136.65-136.65h341.21m0-8h-341.21c-38.49,0-74.77,15.09-102.17,42.48-27.39,27.39-42.48,63.68-42.48,102.17v256.6c0,38.49,15.09,74.77,42.48,102.17,27.39,27.39,63.68,42.48,102.17,42.48h36.93c6.73,0,12.2-5.47,12.2-12.2v-303.17c0-19.1,12.81-36.25,31.16-41.7,4.01-1.19,8.17-1.79,12.34-1.79h104.91c40.93,0,79.41-15.94,108.36-44.89,28.94-28.94,44.88-67.42,44.88-108.35v-24.23c0-5.27-4.29-9.56-9.56-9.56h0Z"/>
      </g>
      <g>
        <path class="cls-4" d="m881.77,554.08c-82.29,0-149.23-66.95-149.23-149.23v-104.93c0-4.56-.66-9.09-1.96-13.48-5.96-20.03-24.68-34.02-45.54-34.02h-303.17c-4.52,0-8.2-3.68-8.2-8.2v-36.93c0-77.55,63.09-140.65,140.65-140.65h256.6c37.42,0,72.7,14.67,99.34,41.32,26.64,26.64,41.31,61.92,41.31,99.33v341.24c0,3.07-2.5,5.56-5.56,5.56h-24.23Z"/>
        <path class="cls-2" d="m770.92,70.63c75.16,0,136.65,61.51,136.65,136.65v341.24c0,.86-.7,1.56-1.56,1.56h-24.23c-80.19,0-145.23-65.01-145.23-145.23v-104.93c0-5.06-.75-9.99-2.13-14.62-6.33-21.27-26.11-36.88-49.37-36.88h-303.17c-2.32,0-4.2-1.88-4.2-4.2v-36.93c0-75.16,61.49-136.65,136.65-136.65h256.6m0-8h-256.6c-38.49,0-74.77,15.09-102.17,42.48-27.39,27.39-42.48,63.68-42.48,102.17v36.93c0,6.73,5.47,12.2,12.2,12.2h303.17c19.1,0,36.25,12.81,41.7,31.16,1.19,4.01,1.79,8.17,1.79,12.34v104.93c0,40.93,15.94,79.41,44.89,108.36,28.94,28.94,67.42,44.88,108.35,44.88h24.23c5.27,0,9.56-4.29,9.56-9.56V207.28c0-19.44-3.84-38.34-11.42-56.18-7.31-17.21-17.76-32.68-31.06-45.98-27.4-27.4-63.68-42.49-102.17-42.49h0Z"/>
      </g>
      <g>
        <path class="cls-7" d="m622,1013.36c-77.55,0-140.65-63.09-140.65-140.65v-341.21c0-3.07,2.49-5.56,5.56-5.56h24.23c82.29,0,149.23,66.95,149.23,149.23v104.91c0,4.55.66,9.09,1.96,13.48,5.96,20.03,24.68,34.02,45.54,34.02h303.17c4.52,0,8.2,3.68,8.2,8.2v36.93c0,77.55-63.09,140.65-140.65,140.65h-256.6Z"/>
        <path class="cls-2" d="m511.14,529.94c80.22,0,145.23,65.01,145.23,145.23v104.91c0,5.06.75,9.99,2.13,14.62,6.33,21.27,26.11,36.88,49.37,36.88h303.17c2.32,0,4.2,1.88,4.2,4.2v36.93c0,75.16-61.49,136.65-136.65,136.65h-256.6c-75.16,0-136.65-61.49-136.65-136.65v-341.21c0-.86.7-1.56,1.56-1.56h24.23m0-8h-24.23c-5.27,0-9.56,4.29-9.56,9.56v341.21c0,38.49,15.09,74.77,42.48,102.17s63.68,42.48,102.17,42.48h256.6c38.49,0,74.77-15.09,102.17-42.48,27.39-27.39,42.48-63.68,42.48-102.17v-36.93c0-6.73-5.47-12.2-12.2-12.2h-303.17c-19.1,0-36.24-12.81-41.7-31.16-1.19-4.01-1.79-8.17-1.79-12.34v-104.91c0-40.94-15.94-79.42-44.88-108.36-28.94-28.94-67.42-44.88-108.36-44.88h0Z"/>
      </g>
    </g>
    <g id="Capa_19_copia_5-2" data-name="Capa 19 copia 5">
      <path class="cls-8" d="m1109.94,804.95h-341.22c-.87,0-1.57-.7-1.57-1.57v-24.21c0-80.21,65.03-145.24,145.24-145.24h104.92c5.06,0,9.99-.75,14.62-2.13h56.24c87.49,0,158.42-70.93,158.42-158.45v194.95c0,75.16-61.49,136.65-136.65,136.65Z"/>
      <path class="cls-20" d="m1088.16,631.8h-56.24c21.27-6.33,36.88-26.11,36.88-49.37v-303.17c0-2.32,1.88-4.2,4.2-4.2h36.93c75.16,0,136.65,61.49,136.65,136.65v61.65c0,87.52-70.93,158.45-158.42,158.45Z"/>
      <path class="cls-13" d="m282.98,275.06h341.22c.87,0,1.57.7,1.57,1.57v24.21c0,80.21-65.03,145.24-145.24,145.24h-104.92c-5.06,0-9.99.75-14.62,2.13h-56.24c-87.49,0-158.42,70.93-158.42,158.45v-194.95c0-75.16,61.49-136.65,136.65-136.65Z"/>
      <path class="cls-6" d="m304.76,448.21h56.24c-21.27,6.33-36.88,26.11-36.88,49.37v303.17c0,2.32-1.88,4.2-4.2,4.2h-36.93c-75.16,0-136.65-61.49-136.65-136.65v-61.65c0-87.52,70.93-158.45,158.42-158.45Z"/>
      <path class="cls-17" d="m907.57,207.29v341.22c0,.87-.7,1.57-1.57,1.57h-24.21c-80.21,0-145.24-65.03-145.24-145.24v-104.92c0-5.06-.75-9.99-2.13-14.62v-56.24c0-87.49-70.93-158.42-158.45-158.42h194.95c75.16,0,136.65,61.49,136.65,136.65Z"/>
      <path class="cls-21" d="m734.42,229.07v56.24c-6.33-21.27-26.11-36.88-49.37-36.88h-303.17c-2.32,0-4.2-1.88-4.2-4.2v-36.93c0-75.16,61.49-136.65,136.65-136.65h61.65c87.52,0,158.45,70.93,158.45,158.42Z"/>
      <path class="cls-5" d="m485.35,872.72v-341.22c0-.87.7-1.57,1.57-1.57h24.21c80.21,0,145.24,65.03,145.24,145.24v104.92c0,5.06.75,9.99,2.13,14.62v56.24c0,87.49,70.93,158.42,158.45,158.42h-194.95c-75.16,0-136.65-61.49-136.65-136.65Z"/>
      <path class="cls-19" d="m658.5,850.94v-56.24c6.33,21.27,26.11,36.88,49.37,36.88h303.17c2.32,0,4.2,1.88,4.2,4.2v36.93c0,75.16-61.49,136.65-136.65,136.65h-61.65c-87.52,0-158.45-70.93-158.45-158.42Z"/>
    </g>
    <g id="Capa_18_copia_2" data-name="Capa 18 copia 2">
      <g>
        <path class="cls-14" d="m2074.65,494.02v263.75h-108.42l108.47.14v-263.79l-.05-.09Z"/>
        <g>
          <path class="cls-16" d="m2823.59,314v154.04c-17.69-22.81-44.28-39.3-84.46-39.3s-75.06,17-98.93,43.31c-27.97-34.65-68.75-51.56-112.24-51.56-26.54,0-51.42,7.69-72.94,21.33v-127.82h-114.73l-129.98,214.9-129.94-214.9h-114.13v296.05c0,35.53-20.23,55.15-50.68,55.15-27.88,0-51.33-18.38-51.33-55.15v-193.11h.37v-102.84l-361.01-.09v102.8h83.31v341.48h108.56v-341.48l66.08.05v221.12c0,64.65,37.37,128.05,117.91,128.05,41.84,0,69.07-16.5,86.81-37.42v29.17h108.42v-263.75l.05.09,115.98,190.76h39.95l115.38-190.85v263.75h109.02v-22.12c24.1,14.28,53.17,22.12,85.98,22.12,39.72,0,73.45-14.01,98.01-36.4,23.91,27.09,57.55,44.65,100.13,44.65,40.18,0,66.77-16.5,84.46-39.3v31.06h95.75v-443.77h-95.75Zm-292.78,189.56c31.7,0,55.48,17.09,62.25,54.51h-123.99c8.52-35.53,32.85-54.51,61.74-54.51Zm69.07,143.25c-9.08,12.03-29.44,27.88-58.89,27.88-35.11,0-62.3-17.09-71.93-54.51h127.72c1.01,9.45,2.67,18.75,4.98,27.88l-1.89-1.24Zm156.39,19.03c-39.63,0-63.82-29.17-63.82-68.47s24.19-69.12,63.82-69.12c36.03,0,64.37,25.99,64.37,69.12s-28.34,68.47-64.37,68.47Z"/>
          <path class="cls-1" d="m2823.59,314v154.04c-17.69-22.81-44.28-39.3-84.46-39.3s-75.06,17-98.93,43.31c-27.97-34.65-68.75-51.56-112.24-51.56-26.54,0-51.42,7.69-72.94,21.33v-127.82h-114.73l-129.98,214.9-129.94-214.9h-114.13v296.05c0,35.53-20.23,55.15-50.68,55.15-27.88,0-51.33-18.38-51.33-55.15v-193.11h.37v-102.84l-361.01-.09v102.8h83.31v341.48h108.56v-341.48l66.08.05v221.12c0,64.65,37.37,128.05,117.91,128.05,41.84,0,69.07-16.5,86.81-37.42v29.17h108.42v-263.75l.05.09,115.98,190.76h39.95l115.38-190.85v263.75h109.02v-22.12c24.1,14.28,53.17,22.12,85.98,22.12,39.72,0,73.45-14.01,98.01-36.4,23.91,27.09,57.55,44.65,100.13,44.65,40.18,0,66.77-16.5,84.46-39.3v31.06h95.75v-443.77h-95.75Zm-292.78,189.56c31.7,0,55.48,17.09,62.25,54.51h-123.99c8.52-35.53,32.85-54.51,61.74-54.51Zm69.07,143.25c-9.08,12.03-29.44,27.88-58.89,27.88-35.11,0-62.3-17.09-71.93-54.51h127.72c1.01,9.45,2.67,18.75,4.98,27.88l-1.89-1.24Zm156.39,19.03c-39.63,0-63.82-29.17-63.82-68.47s24.19-69.12,63.82-69.12c36.03,0,64.37,25.99,64.37,69.12s-28.34,68.47-64.37,68.47Z"/>
          <path class="cls-15" d="m2823.59,314v154.04c-17.69-22.81-44.28-39.3-84.46-39.3s-75.06,17-98.93,43.31c-27.97-34.65-68.75-51.56-112.24-51.56-26.54,0-51.42,7.69-72.94,21.33v-127.82h-114.73l-129.98,214.9-129.94-214.9h-114.13v296.05c0,35.53-20.23,55.15-50.68,55.15-27.88,0-51.33-18.38-51.33-55.15v-193.11h.37v-102.84l-361.01-.09v102.8h83.31v341.48h108.56v-341.48l66.08.05v221.12c0,64.65,37.37,128.05,117.91,128.05,41.84,0,69.07-16.5,86.81-37.42v29.17h108.42v-263.75l.05.09,115.98,190.76h39.95l115.38-190.85v263.75h109.02v-22.12c24.1,14.28,53.17,22.12,85.98,22.12,39.72,0,73.45-14.01,98.01-36.4,23.91,27.09,57.55,44.65,100.13,44.65,40.18,0,66.77-16.5,84.46-39.3v31.06h95.75v-443.77h-95.75Zm-292.78,189.56c31.7,0,55.48,17.09,62.25,54.51h-123.99c8.52-35.53,32.85-54.51,61.74-54.51Zm69.07,143.25c-9.08,12.03-29.44,27.88-58.89,27.88-35.11,0-62.3-17.09-71.93-54.51h127.72c1.01,9.45,2.67,18.75,4.98,27.88l-1.89-1.24Zm156.39,19.03c-39.63,0-63.82-29.17-63.82-68.47s24.19-69.12,63.82-69.12c36.03,0,64.37,25.99,64.37,69.12s-28.34,68.47-64.37,68.47Z"/>
        </g>
      </g>
      <g>
        <path class="cls-11" d="m2340.28,314.01l-129.98,214.9-129.94-214.9h-114.13v443.77h108.42v-263.75l.05.09,115.98,190.76h39.95l115.38-190.85v263.75h109.02v-443.77h-114.73Z"/>
        <path class="cls-3" d="m2074.68,494.04v263.89l-108.45-.16v-29.16c-17.75,20.92-44.98,37.4-86.82,37.4-80.51,0-117.92-63.4-117.92-128.06v-221.04h102.7v193.14c0,36.77,23.45,55.16,51.35,55.16,30.43,0,50.69-19.65,50.69-55.16v-296.06l108.45,180.05Z"/>
        <path class="cls-9" d="m2618.21,682.63c-6.17-11.66-12.26-25.11-15.02-31.24,3.13,7.42,10.69,25.02,14.24,31.52,3.92,7.14,17.14,30.6,20.69,36.91-2.9-5.44-12.9-23.91-19.9-37.18Zm205.37-368.62v154.04c-17.69-22.81-44.28-39.3-84.46-39.3s-75.06,17-98.93,43.31c26.68,33.04,41.65,82.2,36.12,148.14h-79.53c1.01,9.45,2.67,18.75,4.98,27.88,0,0,.05.09.14.32.05.09.09.18.14.32.14.32.32.69.51,1.2.18.42.42.83.6,1.34.04.05.04.09.04.14,3.13,7.42,10.69,25.02,14.24,31.52,3.92,7.14,17.14,30.6,20.69,36.91.55,1.01.88,1.57.88,1.57,23.91,27.09,57.55,44.65,100.13,44.65,40.18,0,66.77-16.5,84.46-39.3v31.06h95.75v-443.77h-95.75Zm-67.32,351.85c-39.63,0-63.82-29.17-63.82-68.47s24.19-69.12,63.82-69.12c36.03,0,64.37,25.99,64.37,69.12s-28.34,68.47-64.37,68.47Z"/>
        <path class="cls-10" d="m2676.32,620.19c5.53-65.94-9.45-115.1-36.12-148.14-27.97-34.65-68.75-51.56-112.24-51.56-26.54,0-51.42,7.7-72.94,21.33-45.06,28.48-75.38,82.94-75.38,147.31s28.24,118.65,75.38,146.53c24.1,14.28,53.17,22.12,85.98,22.12,39.72,0,73.45-14.01,98.01-36.4,0,0-.32-.55-.88-1.57-3.55-6.31-16.77-29.77-20.69-36.91-3.55-6.5-11.1-24.1-14.24-31.52,0-.05,0-.09-.04-.14-.23-.46-.42-.92-.6-1.34-.18-.51-.37-.88-.51-1.2-.04-.14-.09-.23-.14-.32-.09-.23-.14-.32-.14-.32l-1.89-1.24c-9.08,12.03-29.44,27.88-58.89,27.88-35.11,0-62.3-17.1-71.93-54.51h207.26Zm-207.26-62.11c8.52-35.53,32.85-54.51,61.74-54.51,31.7,0,55.48,17.1,62.25,54.51h-123.99Z"/>
        <path class="cls-12" d="m1864.57,416.91l-169.16-.1v341.45h-108.53v-341.45h-83.31v-102.82l361,.1v102.82Z"/>
      </g>
    </g>
  </g>
</svg>