<?xml version="1.0" encoding="utf-8"?>
<!-- Generator: Adobe Illustrator 27.7.0, SVG Export Plug-In . SVG Version: 6.00 Build 0)  -->
<svg version="1.1" id="Capa_33" xmlns="http://www.w3.org/2000/svg" xmlns:xlink="http://www.w3.org/1999/xlink" x="0px" y="0px"
	 viewBox="0 0 418.2 360" style="enable-background:new 0 0 418.2 360;" xml:space="preserve">
<style type="text/css">
	.st0{fill:url(#SVGID_1_);}
	.st1{fill:#FFFFFF;}
	.st2{fill:url(#SVGID_00000093165080325601608490000002471526376417246612_);}
	.st3{fill:url(#SVGID_00000100365213685960611910000002095149833001899949_);}
	.st4{fill:url(#SVGID_00000052066108481264036930000013194204644747098797_);}
	.st5{fill:url(#SVGID_00000088092634585601089100000014144964958348267449_);}
	.st6{fill:url(#SVGID_00000168103223299585560260000004931930622253081762_);}
	.st7{fill:url(#SVGID_00000070812324479694525390000006085058958218260893_);}
	.st8{fill:url(#SVGID_00000116194151188236437250000010161375304990378644_);}
	.st9{fill:url(#SVGID_00000119096004063272762340000007265878473015141015_);}
	.st10{fill:url(#SVGID_00000172411464511391662100000007348434495778009252_);}
	.st11{fill:url(#SVGID_00000039824724984299350300000006265905343394501279_);}
	.st12{fill:url(#SVGID_00000046315923526720308960000003732728427791601310_);}
	.st13{fill:none;stroke:#FFFFFF;stroke-width:5;stroke-miterlimit:10;}
	.st14{fill:url(#SVGID_00000039856112544708588530000013716084798721908872_);stroke:#FFFFFF;stroke-width:5;stroke-miterlimit:10;}
	.st15{fill:url(#SVGID_00000080166555321459974440000016967847153873929635_);}
	.st16{fill:url(#SVGID_00000113336718548876726940000000606709084790032268_);}
	.st17{fill:url(#SVGID_00000062178755936124960810000011436129273619608761_);}
	.st18{fill:url(#SVGID_00000105420527409036600860000011474237309957802380_);}
	.st19{fill:url(#SVGID_00000003816072941085637490000004245223466754406550_);}
	.st20{fill:url(#SVGID_00000007413557750128308500000002041044475237994891_);}
	.st21{fill:url(#SVGID_00000002368822322848385510000005791216962838897550_);}
</style>
<g>
	<linearGradient id="SVGID_1_" gradientUnits="userSpaceOnUse" x1="217.4992" y1="207.3238" x2="422.0858" y2="167.2454">
		<stop  offset="0" style="stop-color:#5AB5BE"/>
		<stop  offset="1" style="stop-color:#2B3078"/>
	</linearGradient>
	<path class="st0" d="M235.7,281c-2.5,0-4.6-2.1-4.6-4.6v-8.8c0-31.5,25.6-57.1,57.1-57.1h38.4c1.4,0,2.8-0.2,4.2-0.6
		c6.3-1.9,10.6-7.7,10.6-14.2V84.9c0-3.1,2.5-5.5,5.5-5.5h13.5c29.8,0,54,24.2,54,54v93.8c0,29.7-24.2,54-54,54H235.7z"/>
	<path class="st1" d="M360.4,83.3c27.5,0,50,22.5,50,50v93.8c0,27.5-22.5,50-50,50H235.7c-0.3,0-0.6-0.3-0.6-0.6v-8.8
		c0-29.3,23.8-53.1,53.1-53.1h38.4c1.9,0,3.7-0.3,5.3-0.8c7.8-2.3,13.5-9.5,13.5-18V84.9c0-0.8,0.7-1.5,1.5-1.5H360.4 M360.4,75.3
		h-13.5c-5.3,0-9.5,4.3-9.5,9.5v110.8c0,4.8-3.2,9-7.8,10.4c-1,0.3-2,0.4-3.1,0.4h-38.4c-33.7,0-61.1,27.4-61.1,61.1v8.8
		c0,4.7,3.8,8.6,8.6,8.6h124.7c32,0,58-26,58-58v-93.8C418.4,101.3,392.4,75.3,360.4,75.3L360.4,75.3z"/>
</g>
<g>
	
		<linearGradient id="SVGID_00000165208937758815557560000014764710714153395352_" gradientUnits="userSpaceOnUse" x1="-3.5017" y1="193.115" x2="201.0769" y2="153.0381">
		<stop  offset="0" style="stop-color:#5AB5BE"/>
		<stop  offset="1" style="stop-color:#2B3078"/>
	</linearGradient>
	<path style="fill:url(#SVGID_00000165208937758815557560000014764710714153395352_);" d="M58.1,281c-29.8,0-54-24.2-54-54v-93.8
		c0-29.8,24.2-54,54-54h124.7c2.5,0,4.6,2.1,4.6,4.6v8.9c0,31.5-25.6,57.1-57.1,57.1H92c-1.4,0-2.8,0.2-4.2,0.6
		c-6.3,1.9-10.6,7.7-10.6,14.2v110.8c0,3.1-2.5,5.5-5.5,5.5H58.1z"/>
	<path class="st1" d="M182.9,83.3c0.3,0,0.6,0.3,0.6,0.6v8.9c0,29.3-23.8,53.1-53.1,53.1H92c-1.9,0-3.7,0.3-5.3,0.8
		c-7.8,2.3-13.5,9.5-13.5,18v110.8c0,0.8-0.7,1.5-1.5,1.5H58.1c-27.5,0-50-22.5-50-50v-93.8c0-27.5,22.5-50,50-50H182.9 M182.9,75.3
		H58.1c-32,0-58,26-58,58v93.8c0,32,26,58,58,58h13.5c5.3,0,9.5-4.3,9.5-9.5V164.7c0-4.8,3.2-9,7.8-10.4c1-0.3,2-0.4,3.1-0.4h38.4
		c33.7,0,61.1-27.4,61.1-61.1v-8.9C191.4,79.2,187.6,75.3,182.9,75.3L182.9,75.3z"/>
</g>
<g>
	
		<linearGradient id="SVGID_00000162327281204542293020000014975569195730227364_" gradientUnits="userSpaceOnUse" x1="97.7594" y1="118.5831" x2="295.6594" y2="79.8145">
		<stop  offset="0" style="stop-color:#5AB5BE"/>
		<stop  offset="1" style="stop-color:#2B3078"/>
	</linearGradient>
	<path style="fill:url(#SVGID_00000162327281204542293020000014975569195730227364_);" d="M277,187.9c-31.5,0-57.1-25.6-57.1-57.1
		V92.4c0-1.4-0.2-2.8-0.6-4.2c-1.9-6.3-7.7-10.6-14.2-10.6H94.3c-3.1,0-5.5-2.5-5.5-5.5V58.5c0-29.8,24.2-54,54-54h93.8
		c29.8,0,54,24.2,54,54v124.7c0,2.5-2.1,4.6-4.6,4.6H277z"/>
	<path class="st1" d="M236.5,8.6c27.5,0,50,22.5,50,50v124.7c0,0.3-0.3,0.6-0.6,0.6H277c-29.3,0-53.1-23.8-53.1-53.1V92.4
		c0-1.9-0.3-3.7-0.8-5.3c-2.3-7.8-9.5-13.5-18-13.5H94.3c-0.8,0-1.5-0.7-1.5-1.5V58.5c0-27.5,22.5-50,50-50H236.5 M236.5,0.6h-93.8
		c-32,0-58,26-58,58V72c0,5.3,4.3,9.5,9.5,9.5h110.8c4.8,0,9,3.2,10.4,7.8c0.3,1,0.4,2,0.4,3.1v38.4c0,33.7,27.4,61.1,61.1,61.1h8.9
		c4.7,0,8.6-3.8,8.6-8.6V58.5C294.5,26.6,268.5,0.6,236.5,0.6L236.5,0.6z"/>
</g>
<g>
	
		<linearGradient id="SVGID_00000140727931673395298930000013988448973737500840_" gradientUnits="userSpaceOnUse" x1="122.9157" y1="280.5403" x2="320.8158" y2="241.7718">
		<stop  offset="0" style="stop-color:#5AB5BE"/>
		<stop  offset="1" style="stop-color:#2B3078"/>
	</linearGradient>
	<path style="fill:url(#SVGID_00000140727931673395298930000013988448973737500840_);" d="M182.1,355.8c-29.8,0-54-24.2-54-54V177.1
		c0-2.5,2.1-4.6,4.6-4.6h8.9c31.5,0,57.1,25.6,57.1,57.1v38.4c0,1.4,0.2,2.8,0.6,4.2c1.9,6.3,7.7,10.6,14.2,10.6h110.8
		c3.1,0,5.5,2.5,5.5,5.5v13.5c0,29.8-24.2,54-54,54H182.1z"/>
	<path class="st1" d="M141.5,176.5c29.3,0,53.1,23.8,53.1,53.1v38.4c0,1.9,0.3,3.7,0.8,5.3c2.3,7.8,9.5,13.5,18,13.5h110.8
		c0.8,0,1.5,0.7,1.5,1.5v13.5c0,27.5-22.5,50-50,50h-93.8c-27.5,0-50-22.5-50-50V177.1c0-0.3,0.3-0.6,0.6-0.6H141.5 M141.5,168.5
		h-8.9c-4.7,0-8.6,3.8-8.6,8.6v124.7c0,32,26,58,58,58h93.8c32,0,58-26,58-58v-13.5c0-5.3-4.3-9.5-9.5-9.5H213.5
		c-4.8,0-9-3.2-10.4-7.8c-0.3-1-0.4-2-0.4-3.1v-38.4C202.6,195.9,175.2,168.5,141.5,168.5L141.5,168.5z"/>
</g>
<polygon class="st1" points="351.2,75.4 184,75.4 46.2,176.5 66.3,285 344.9,285 "/>
<linearGradient id="SVGID_00000118356553967524658220000005546621359919160454_" gradientUnits="userSpaceOnUse" x1="2186.7043" y1="2669.8286" x2="2186.7043" y2="2777.8079" gradientTransform="matrix(0 1 -1 0 2992.5903 -1970.2811)">
	<stop  offset="0" style="stop-color:#5AB5BE"/>
	<stop  offset="1" style="stop-color:#2B3078"/>
</linearGradient>
<path style="fill:url(#SVGID_00000118356553967524658220000005546621359919160454_);" d="M360.4,277H235.7c-0.3,0-0.6-0.3-0.6-0.6
	v-8.9c0-29.3,23.8-53.1,53.1-53.1h38.4c1.9,0,3.7-0.3,5.3-0.8h20.6c32,0,57.9-25.9,57.9-57.9v71.3C410.4,254.6,387.9,277,360.4,277z
	"/>
<linearGradient id="SVGID_00000000195347914876854960000011848302056581333922_" gradientUnits="userSpaceOnUse" x1="2053.6033" y1="2621.4316" x2="2184.0178" y2="2621.4316" gradientTransform="matrix(0 1 -1 0 2992.5903 -1970.2811)">
	<stop  offset="0" style="stop-color:#5AB5BE"/>
	<stop  offset="1" style="stop-color:#2B3078"/>
</linearGradient>
<path style="fill:url(#SVGID_00000000195347914876854960000011848302056581333922_);" d="M352.5,213.7h-20.6
	c7.8-2.3,13.5-9.5,13.5-18V84.9c0-0.8,0.7-1.5,1.5-1.5h13.5c27.5,0,50,22.5,50,50v22.5C410.4,187.8,384.5,213.7,352.5,213.7z"/>
<linearGradient id="SVGID_00000103244189213594279770000005324032636503447216_" gradientUnits="userSpaceOnUse" x1="2848.6567" y1="-2110.8931" x2="2848.6567" y2="-2002.9139" gradientTransform="matrix(0 -1 1 0 2206.7065 2992.5903)">
	<stop  offset="0" style="stop-color:#5AB5BE"/>
	<stop  offset="1" style="stop-color:#2B3078"/>
</linearGradient>
<path style="fill:url(#SVGID_00000103244189213594279770000005324032636503447216_);" d="M58.1,83.3h124.7c0.3,0,0.6,0.3,0.6,0.6
	v8.9c0,29.3-23.8,53.1-53.1,53.1H92c-1.9,0-3.7,0.3-5.3,0.8H66.1c-32,0-57.9,25.9-57.9,57.9v-71.3C8.2,105.8,30.7,83.3,58.1,83.3z"
	/>
<linearGradient id="SVGID_00000148639067325680366620000000395575387666673024_" gradientUnits="userSpaceOnUse" x1="2715.5557" y1="-2159.29" x2="2845.9702" y2="-2159.29" gradientTransform="matrix(0 -1 1 0 2206.7065 2992.5903)">
	<stop  offset="0" style="stop-color:#5AB5BE"/>
	<stop  offset="1" style="stop-color:#2B3078"/>
</linearGradient>
<path style="fill:url(#SVGID_00000148639067325680366620000000395575387666673024_);" d="M66.1,146.6h20.6
	c-7.8,2.3-13.5,9.5-13.5,18v110.8c0,0.8-0.7,1.5-1.5,1.5H58.1c-27.5,0-50-22.5-50-50v-22.5C8.2,172.6,34.1,146.6,66.1,146.6z"/>
<linearGradient id="SVGID_00000044881075389002183720000010264080540060896394_" gradientUnits="userSpaceOnUse" x1="-476.5383" y1="764.429" x2="-476.5383" y2="872.4083" gradientTransform="matrix(1 0 0 1 702.3885 -668.2014)">
	<stop  offset="0" style="stop-color:#5AB5BE"/>
	<stop  offset="1" style="stop-color:#2B3078"/>
</linearGradient>
<path style="fill:url(#SVGID_00000044881075389002183720000010264080540060896394_);" d="M286.5,58.5v124.7c0,0.3-0.3,0.6-0.6,0.6
	H277c-29.3,0-53.1-23.8-53.1-53.1V92.4c0-1.9-0.3-3.7-0.8-5.3V66.5c0-32-25.9-57.9-57.9-57.9h71.3C264,8.6,286.5,31.1,286.5,58.5z"
	/>
<linearGradient id="SVGID_00000109746113997070572150000009941200940134481044_" gradientUnits="userSpaceOnUse" x1="-609.6393" y1="716.0321" x2="-479.2249" y2="716.0321" gradientTransform="matrix(1 0 0 1 702.3885 -668.2014)">
	<stop  offset="0" style="stop-color:#5AB5BE"/>
	<stop  offset="1" style="stop-color:#2B3078"/>
</linearGradient>
<path style="fill:url(#SVGID_00000109746113997070572150000009941200940134481044_);" d="M223.2,66.5v20.6
	c-2.3-7.8-9.5-13.5-18-13.5H94.3c-0.8,0-1.5-0.7-1.5-1.5V58.5c0-27.5,22.5-50,50-50h22.5C197.2,8.6,223.2,34.5,223.2,66.5z"/>
<linearGradient id="SVGID_00000155853622543415296870000011141820889128655801_" gradientUnits="userSpaceOnUse" x1="5472.5352" y1="-146.447" x2="5472.5352" y2="-38.4677" gradientTransform="matrix(-1 0 0 -1 5665.2603 117.6823)">
	<stop  offset="0" style="stop-color:#5AB5BE"/>
	<stop  offset="1" style="stop-color:#2B3078"/>
</linearGradient>
<path style="fill:url(#SVGID_00000155853622543415296870000011141820889128655801_);" d="M132.1,301.8V177.1c0-0.3,0.3-0.6,0.6-0.6
	h8.9c29.3,0,53.1,23.8,53.1,53.1v38.4c0,1.9,0.3,3.7,0.8,5.3v20.6c0,32,25.9,57.9,57.9,57.9h-71.3
	C154.6,351.8,132.1,329.3,132.1,301.8z"/>
<linearGradient id="SVGID_00000025405280493929420070000007256125306487236533_" gradientUnits="userSpaceOnUse" x1="5339.4341" y1="-194.8439" x2="5469.8481" y2="-194.8439" gradientTransform="matrix(-1 0 0 -1 5665.2603 117.6823)">
	<stop  offset="0" style="stop-color:#5AB5BE"/>
	<stop  offset="1" style="stop-color:#2B3078"/>
</linearGradient>
<path style="fill:url(#SVGID_00000025405280493929420070000007256125306487236533_);" d="M195.4,293.8v-20.6
	c2.3,7.8,9.5,13.5,18,13.5h110.8c0.8,0,1.5,0.7,1.5,1.5v13.5c0,27.5-22.5,50-50,50h-22.5C221.3,351.8,195.4,325.8,195.4,293.8z"/>
<g>
	<g>
		<g>
			<g>
				<path class="st1" d="M367.6,122.9v39c-4.5-5.8-11.2-10-21.4-10c-10.6,0-42.5-2.1-53.5-2.1c-6.7,0-13,1.9-18.5,5.4v-32.4h-29.1
					h-65.8h-28.9v25.2l-25.7,0.3V123l-91.4,0v26h21.1v86.5h27.5c0,0,26.2,2,46.6,2c10.6,0,17.5-4.2,22-9.5v7.4h27.5h68.7h27.6v-5.6
					c6.1,3.6,13.5,5.6,21.8,5.6c10.1,0,39.4,2.1,50.2,2.1c10.2,0,16.9-4.2,21.4-10v7.9h24.3V122.9H367.6z"/>
			</g>
			<g>
				<path class="st1" d="M367.6,122.9v39c-4.5-5.8-11.2-10-21.4-10c-10.6,0-42.5-2.1-53.5-2.1c-6.7,0-13,1.9-18.5,5.4v-32.4h-29.1
					h-65.8h-28.9v25.2l-25.7,0.3V123l-91.4,0v26h21.1v86.5h27.5c0,0,26.2,2,46.6,2c10.6,0,17.5-4.2,22-9.5v7.4h27.5h68.7h27.6v-5.6
					c6.1,3.6,13.5,5.6,21.8,5.6c10.1,0,39.4,2.1,50.2,2.1c10.2,0,16.9-4.2,21.4-10v7.9h24.3V122.9H367.6z"/>
			</g>
			<g>
				<path class="st13" d="M367.6,122.9v39c-4.5-5.8-11.2-10-21.4-10c-10.6,0-42.5-2.1-53.5-2.1c-6.7,0-13,1.9-18.5,5.4v-32.4h-29.1
					h-65.8h-28.9v25.2l-25.7,0.3V123l-91.4,0v26h21.1v86.5h27.5c0,0,26.2,2,46.6,2c10.6,0,17.5-4.2,22-9.5v7.4h27.5h68.7h27.6v-5.6
					c6.1,3.6,13.5,5.6,21.8,5.6c10.1,0,39.4,2.1,50.2,2.1c10.2,0,16.9-4.2,21.4-10v7.9h24.3V122.9H367.6z"/>
			</g>
		</g>
	</g>
</g>
<g>
	
		<linearGradient id="SVGID_00000140721116359923910630000005205499549420814234_" gradientUnits="userSpaceOnUse" x1="150.3992" y1="201.9536" x2="177.8744" y2="201.9536">
		<stop  offset="0" style="stop-color:#E94C4D"/>
		<stop  offset="1" style="stop-color:#A72E2E"/>
	</linearGradient>
	
		<path style="fill:url(#SVGID_00000140721116359923910630000005205499549420814234_);stroke:#FFFFFF;stroke-width:5;stroke-miterlimit:10;" d="
		M177.9,168.5v66.8h-27.5l27.5,0L177.9,168.5L177.9,168.5z"/>
	<g>
		<g>
			<g>
				
					<linearGradient id="SVGID_00000148629513056405769990000012355778705196915093_" gradientUnits="userSpaceOnUse" x1="45.522" y1="211.8495" x2="395.8043" y2="143.2292">
					<stop  offset="0" style="stop-color:#E94C4D"/>
					<stop  offset="1" style="stop-color:#A72E2E"/>
				</linearGradient>
				<path style="fill:url(#SVGID_00000148629513056405769990000012355778705196915093_);" d="M367.6,122.9v39
					c-4.5-5.8-11.2-10-21.4-10c-10.6,0-19,4.3-25.1,11c-7.1-8.8-17.4-13.1-28.4-13.1c-6.7,0-13,1.9-18.5,5.4v-32.4h-29.1l-32.9,54.4
					l-32.9-54.4h-28.9v75c0,9-5.1,14-12.8,14c-7.1,0-13-4.7-13-14V149h0.1V123l-91.4,0v26h21.1v86.5h27.5V149l16.7,0v56
					c0,16.4,9.5,32.4,29.9,32.4c10.6,0,17.5-4.2,22-9.5v7.4h27.5v-66.8l0,0l29.4,48.3h10.1l29.2-48.3v66.8h27.6v-5.6
					c6.1,3.6,13.5,5.6,21.8,5.6c10.1,0,18.6-3.5,24.8-9.2c6.1,6.9,14.6,11.3,25.4,11.3c10.2,0,16.9-4.2,21.4-10v7.9h24.3V122.9
					H367.6z M293.4,170.9c8,0,14.1,4.3,15.8,13.8h-31.4C279.9,175.8,286.1,170.9,293.4,170.9z M310.9,207.2c-2.3,3-7.5,7.1-14.9,7.1
					c-8.9,0-15.8-4.3-18.2-13.8h32.4c0.3,2.4,0.7,4.8,1.3,7.1L310.9,207.2z M350.5,212.1c-10,0-16.2-7.4-16.2-17.3
					c0-10.1,6.1-17.5,16.2-17.5c9.1,0,16.3,6.6,16.3,17.5C366.8,205.5,359.6,212.1,350.5,212.1z"/>
			</g>
			<g>
				
					<linearGradient id="SVGID_00000035520438257889212630000009165084627489427328_" gradientUnits="userSpaceOnUse" x1="45.522" y1="211.8495" x2="395.8043" y2="143.2292">
					<stop  offset="0" style="stop-color:#E94C4D"/>
					<stop  offset="1" style="stop-color:#A72E2E"/>
				</linearGradient>
				<path style="fill:url(#SVGID_00000035520438257889212630000009165084627489427328_);" d="M367.6,122.9v39
					c-4.5-5.8-11.2-10-21.4-10c-10.6,0-19,4.3-25.1,11c-7.1-8.8-17.4-13.1-28.4-13.1c-6.7,0-13,1.9-18.5,5.4v-32.4h-29.1l-32.9,54.4
					l-32.9-54.4h-28.9v75c0,9-5.1,14-12.8,14c-7.1,0-13-4.7-13-14V149h0.1V123l-91.4,0v26h21.1v86.5h27.5V149l16.7,0v56
					c0,16.4,9.5,32.4,29.9,32.4c10.6,0,17.5-4.2,22-9.5v7.4h27.5v-66.8l0,0l29.4,48.3h10.1l29.2-48.3v66.8h27.6v-5.6
					c6.1,3.6,13.5,5.6,21.8,5.6c10.1,0,18.6-3.5,24.8-9.2c6.1,6.9,14.6,11.3,25.4,11.3c10.2,0,16.9-4.2,21.4-10v7.9h24.3V122.9
					H367.6z M293.4,170.9c8,0,14.1,4.3,15.8,13.8h-31.4C279.9,175.8,286.1,170.9,293.4,170.9z M310.9,207.2c-2.3,3-7.5,7.1-14.9,7.1
					c-8.9,0-15.8-4.3-18.2-13.8h32.4c0.3,2.4,0.7,4.8,1.3,7.1L310.9,207.2z M350.5,212.1c-10,0-16.2-7.4-16.2-17.3
					c0-10.1,6.1-17.5,16.2-17.5c9.1,0,16.3,6.6,16.3,17.5C366.8,205.5,359.6,212.1,350.5,212.1z"/>
			</g>
			<g>
				<path class="st13" d="M367.6,122.9v39c-4.5-5.8-11.2-10-21.4-10c-10.6,0-19,4.3-25.1,11c-7.1-8.8-17.4-13.1-28.4-13.1
					c-6.7,0-13,1.9-18.5,5.4v-32.4h-29.1l-32.9,54.4l-32.9-54.4h-28.9v75c0,9-5.1,14-12.8,14c-7.1,0-13-4.7-13-14V149h0.1V123
					l-91.4,0v26h21.1v86.5h27.5V149l16.7,0v56c0,16.4,9.5,32.4,29.9,32.4c10.6,0,17.5-4.2,22-9.5v7.4h27.5v-66.8l0,0l29.4,48.3h10.1
					l29.2-48.3v66.8h27.6v-5.6c6.1,3.6,13.5,5.6,21.8,5.6c10.1,0,18.6-3.5,24.8-9.2c6.1,6.9,14.6,11.3,25.4,11.3
					c10.2,0,16.9-4.2,21.4-10v7.9h24.3V122.9H367.6z M293.4,170.9c8,0,14.1,4.3,15.8,13.8h-31.4
					C279.9,175.8,286.1,170.9,293.4,170.9z M310.9,207.2c-2.3,3-7.5,7.1-14.9,7.1c-8.9,0-15.8-4.3-18.2-13.8h32.4
					c0.3,2.4,0.7,4.8,1.3,7.1L310.9,207.2z M350.5,212.1c-10,0-16.2-7.4-16.2-17.3c0-10.1,6.1-17.5,16.2-17.5
					c9.1,0,16.3,6.6,16.3,17.5C366.8,205.5,359.6,212.1,350.5,212.1z"/>
			</g>
		</g>
	</g>
</g>
<g>
	
		<linearGradient id="SVGID_00000132079125651156924120000012375737709090412435_" gradientUnits="userSpaceOnUse" x1="184.5099" y1="184.5826" x2="272.9796" y2="167.2514">
		<stop  offset="0" style="stop-color:#E94C4D"/>
		<stop  offset="1" style="stop-color:#A72E2E"/>
	</linearGradient>
	<path style="fill:url(#SVGID_00000132079125651156924120000012375737709090412435_);" d="M245.1,122.9l-32.9,54.4l-32.9-54.4h-28.9
		v112.4h27.5v-66.8l0,0l29.4,48.3h10.1l29.2-48.3v66.8h27.6V122.9H245.1z"/>
	
		<linearGradient id="SVGID_00000164499009152583938320000003680957467554482618_" gradientUnits="userSpaceOnUse" x1="98.5383" y1="180.1781" x2="177.8718" y2="180.1781">
		<stop  offset="0" style="stop-color:#E94C4D"/>
		<stop  offset="1" style="stop-color:#A72E2E"/>
	</linearGradient>
	<path style="fill:url(#SVGID_00000164499009152583938320000003680957467554482618_);" d="M177.9,168.5v66.8l-27.5,0V228
		c-4.5,5.3-11.4,9.5-22,9.5c-20.4,0-29.9-16.1-29.9-32.4v-56h26v48.9c0,9.3,5.9,14,13,14c7.7,0,12.8-5,12.8-14v-75L177.9,168.5z"/>
	
		<linearGradient id="SVGID_00000174589688104038492020000007848191655571623101_" gradientUnits="userSpaceOnUse" x1="310.1245" y1="180.1824" x2="391.8263" y2="180.1824">
		<stop  offset="0" style="stop-color:#E94C4D"/>
		<stop  offset="1" style="stop-color:#A72E2E"/>
	</linearGradient>
	<path style="fill:url(#SVGID_00000174589688104038492020000007848191655571623101_);" d="M315.6,216.3c-1.6-3-3.1-6.4-3.8-7.9
		c0.8,1.9,2.7,6.3,3.6,8c1,1.8,4.3,7.8,5.2,9.3C319.9,224.3,317.3,219.7,315.6,216.3z M367.6,122.9v39c-4.5-5.8-11.2-10-21.4-10
		c-10.6,0-19,4.3-25.1,11c6.8,8.4,10.6,20.8,9.2,37.5h-20.1c0.3,2.4,0.7,4.8,1.3,7.1c0,0,0,0,0,0.1c0,0,0,0,0,0.1
		c0,0.1,0.1,0.2,0.1,0.3c0,0.1,0.1,0.2,0.2,0.3c0,0,0,0,0,0c0.8,1.9,2.7,6.3,3.6,8c1,1.8,4.3,7.8,5.2,9.3c0.1,0.3,0.2,0.4,0.2,0.4
		c6.1,6.9,14.6,11.3,25.4,11.3c10.2,0,16.9-4.2,21.4-10v7.9h24.3V122.9H367.6z M350.5,212.1c-10,0-16.2-7.4-16.2-17.3
		c0-10.1,6.1-17.5,16.2-17.5c9.1,0,16.3,6.6,16.3,17.5C366.8,205.5,359.6,212.1,350.5,212.1z"/>
	
		<linearGradient id="SVGID_00000129911682750647573970000014647892205033201816_" gradientUnits="userSpaceOnUse" x1="248.4324" y1="216.9137" x2="341.4365" y2="168.346">
		<stop  offset="0" style="stop-color:#E94C4D"/>
		<stop  offset="0.285" style="stop-color:#E64A4B"/>
		<stop  offset="0.5256" style="stop-color:#DA4445"/>
		<stop  offset="0.7499" style="stop-color:#C63A3B"/>
		<stop  offset="0.9633" style="stop-color:#AC3030"/>
		<stop  offset="1" style="stop-color:#A72E2E"/>
	</linearGradient>
	<path style="fill:url(#SVGID_00000129911682750647573970000014647892205033201816_);" d="M330.3,200.5c1.4-16.7-2.4-29.2-9.2-37.5
		c-7.1-8.8-17.4-13.1-28.4-13.1c-6.7,0-13,1.9-18.5,5.4c-11.4,7.2-19.1,21-19.1,37.3c0,16.8,7.2,30.1,19.1,37.1
		c6.1,3.6,13.5,5.6,21.8,5.6c10.1,0,18.6-3.5,24.8-9.2c0,0-0.1-0.1-0.2-0.4c-0.9-1.6-4.2-7.5-5.2-9.3c-0.9-1.6-2.8-6.1-3.6-8
		c0,0,0,0,0,0c-0.1-0.1-0.1-0.2-0.2-0.3c0-0.1-0.1-0.2-0.1-0.3c0,0,0-0.1,0-0.1c0-0.1,0-0.1,0-0.1l-0.5-0.3c-2.3,3-7.5,7.1-14.9,7.1
		c-8.9,0-15.8-4.3-18.2-13.8H330.3z M277.8,184.8c2.2-9,8.3-13.8,15.6-13.8c8,0,14.1,4.3,15.8,13.8H277.8z"/>
	<g>
		<g>
			
				<linearGradient id="SVGID_00000025426150042463957280000004879049941081304728_" gradientUnits="userSpaceOnUse" x1="33.2054" y1="179.1966" x2="124.649" y2="179.1966">
				<stop  offset="0" style="stop-color:#E94C4D"/>
				<stop  offset="1" style="stop-color:#A72E2E"/>
			</linearGradient>
			<path style="fill:url(#SVGID_00000025426150042463957280000004879049941081304728_);" d="M124.6,149l-42.8,0v86.5H54.3V149H33.2
				v-26l91.4,0V149z"/>
		</g>
	</g>
</g>
</svg>
